<?xml version="1.0" encoding="utf-8"?>
<!-- Generator: Adobe Illustrator 24.2.3, SVG Export Plug-In . SVG Version: 6.00 Build 0)  -->
<svg version="1.1" id="レイヤー_1" xmlns="http://www.w3.org/2000/svg" xmlns:xlink="http://www.w3.org/1999/xlink" x="0px"
	 y="0px" viewBox="0 0 595.3 158.7" style="enable-background:new 0 0 595.3 158.7;" xml:space="preserve">
<style type="text/css">
	.st0{fill:#2b2b2b;}
</style>
<g>
	<g>
		<path class="st0" d="M38.2,1.8L38.6,2c3.2,1.2,3.1,5.7,3,9.2v10.4h-27V11.4c-0.1-3.4-0.1-8.1,3-9.3L18,1.8V0.6H2v1.3L2.4,2
			c3.2,1.2,3.1,5.6,3.1,9.2c0,0.4,0,32.4,0,32.4c-0.1,3.4,0.1,8.1-3.1,9.3L2,53v1.3H18V53l-0.4-0.2c-3.1-1.2-3-6-3-9.3V28.7h27v15
			c0.1,3.6,0.1,8-3,9.2L38.2,53v1.4h16.2V53l-0.4-0.2c-3.2-1.2-3.2-5.9-3.1-9.3V12.4v-1.1c-0.1-3.4-0.1-8.1,3.1-9.3l0.4-0.2V0.6
			H38.2V1.8z"/>
		<path class="st0" d="M116.3,43.1L99.4,0.6H85.9v1.3L86.4,2c0.9,0.2,1.5,0.7,1.7,1.3c0.6,1.2-0.2,3.1-0.8,4.9L73.7,43.1
			c-1.5,4-2.9,7.8-6.8,9.8l-0.4,0.2v1.3h15.7V53l-0.4-0.2c-2-0.7-2.4-1.6-2.4-2.4c-0.1-1.3,0.5-3,1.2-5l3.9-10.8h18.8l4.5,11.8
			c1.8,4.8,1.9,5-1.2,6.4l-0.3,0.2v1.3h17.3v-1.3l-0.4-0.2C119.3,50.9,117.8,47.1,116.3,43.1 M100.5,27.5H87l6.8-17.8L100.5,27.5z"
			/>
		<path class="st0" d="M173.4,1.8l0.3,0.2c3.7,2.1,3.7,5,3.7,9.3v28.6L148.9,2.8c-0.5-0.6-1-1.3-1-1.6V0.6h-12.7v1.2l0.3,0.2
			c3.7,2.2,3.7,5.1,3.7,9.5v31.9c0,4.4,0,7.3-3.8,9.6l-0.3,0.2v1.3h15v-1.3l-0.3-0.2c-3.7-2.3-3.7-5.1-3.7-9.3V14.3l25.7,33.3
			c3.2,4.3,5.8,7.3,11.7,9.3l0.9,0.3V11.5c0-4.4,0-7.3,3.7-9.5l0.3-0.2V0.6h-15V1.8z"/>
		<path class="st0" d="M246.1,43.1L229.2,0.6h-13.4v1.3l0.4,0.2c0.9,0.2,1.5,0.7,1.7,1.3c0.6,1.2-0.2,3.1-0.8,4.9L203.5,43
			c-1.5,4.1-2.9,7.9-6.8,9.9l-0.4,0.2v1.3h15.6V53l-0.4-0.2c-3-1.2-3-2.6-1.2-7.4l3.9-10.8h18.9l4.4,11.8c1.8,4.8,1.9,5.1-1.1,6.4
			l-0.4,0.2v1.3h17.3v-1.3l-0.3-0.2C249.1,50.9,247.6,47.1,246.1,43.1 M230.3,27.5h-13.6l6.8-17.8L230.3,27.5z"/>
		<path class="st0" d="M269.2,1.8l0.4,0.2c3.2,1.2,3.2,5.9,3.2,9.3l-0.1,45.4c0,9.7-9.5,14.7-9.5,14.7v1.3c0,0,18.8-0.5,18.8-15.1
			V11.4c0-3.4-0.1-8.1,3-9.3l0.4-0.2V0.6h-16.2V1.8z"/>
		<path class="st0" d="M302.8,1.8l0.4,0.2c3.2,1.2,3.1,5.7,3,9.2c0,0.4,0,32.3,0,32.3c0,3.5,0.1,8.1-3,9.3l-0.4,0.2v1.3h16.1V53
			l-0.4-0.2c-3.2-1.2-3.1-5.9-3-9.3V11.4c-0.1-3.4-0.1-8.1,3-9.3l0.4-0.2V0.6h-16.1V1.8z"/>
		<path class="st0" d="M369.9,42.1c-6.1-7.9-10.7-13.7-10.7-13.7c6.1-1.8,11.9-7.1,11.9-14.4c0-8.2-6.5-13.5-16.8-13.5h-19.2v1.3
			l0.4,0.2c3.1,1.2,3,5.7,3,9.2v32.4c0,3.4,0.1,8-3,9.2l-0.4,0.2v1.3h16.1V53l-0.4-0.2c-3.2-1.2-3.2-5.6-3.1-9.2V7.3l5.3-0.6
			c4.4-0.3,8.9,2.9,8.9,8.2c0,7.6-8.1,10.1-13,10.8l-1,0.2c0,0,6.2,11,17.3,24.2c2.5,3,5.1,4.3,9.6,4.3h9.4
			C384.3,54.4,376,50,369.9,42.1"/>
		<path class="st0" d="M439.3,2l0.6-0.2l-0.4-1.2h-15.9v1.3l0.4,0.2c3.1,1.2,3.1,5.9,3,9.3v25.4c0,2.7,0,4.4-1.5,6.5
			c-2.3,3.3-6.3,5.3-10.9,5.3c-8,0-11.8-4.9-11.8-14.9l0-22.4c0-3.4-0.1-8.1,3-9.3l0.3-0.2V0.6h-16v1.3l0.4,0.2
			c3.1,1.2,3.1,5.6,3.1,9.2l0,23.1c0,5.6,0,10.9,4.2,15.6c3.3,3.7,8.7,5.8,14.6,5.8c4.7,0,10.8-1.5,14.7-5.5v4.2h12.8V53l-0.4-0.2
			c-3.2-1.2-3.1-5.9-3.1-9.3V11.4C436.1,7.9,436.1,3.2,439.3,2"/>
		<path class="st0" d="M478.9,23.6c-6-2.7-11.6-5.4-11.6-10.1c0-6.3,7.9-6.6,9.5-6.6c7.8,0,12.9,6,12.9,6V1.8c0,0-6.3-1.9-12.3-1.9
			c-9.4,0-20.3,3.8-20.3,14.5c0,9.6,8.1,13.3,15.3,16.5c6.2,2.8,11.6,5.3,11.6,10.6c0,5-6.2,7.6-10.6,7.6c-10.5,0-18.2-7.7-18.2-7.7
			l2.7,12.2c0,0,7.4,2.5,14.6,2.5c11.9,0,21.6-7.6,21.6-17.2C494.2,30.8,486,27,478.9,23.6"/>
		<path class="st0" d="M544.5,1.8l0.4,0.2c3.2,1.2,3.1,5.7,3.1,9.2c0,0.4,0,0.8,0,1.2v9.2h-27V11.3c0-3.4-0.1-8.1,3-9.3l0.4-0.2V0.6
			h-16.1v1.3l0.4,0.2c3.2,1.2,3.1,5.6,3.1,9.2c0,0.4,0,0.8,0,1.2v30.2v1c0.1,3.4,0.1,8.1-3.1,9.3l-0.4,0.2v1.3h16.1V53l-0.4-0.2
			c-3.1-1.2-3.1-5.9-3-9.3V28.7h27v13.8c0,0.4,0,0.8,0,1.1c0,3.6,0.1,8-3.1,9.2l-0.4,0.2v1.3h16.2V53l-0.4-0.2
			c-3.2-1.2-3.2-5.9-3.2-9.3l0.1-31.2l-0.1-1c0-3.4-0.1-8.1,3.2-9.3l0.4-0.2V0.6h-16.2V1.8z"/>
		<path class="st0" d="M592.9,2l0.4-0.2V0.6h-16.1v1.3l0.4,0.2c3.2,1.2,3.1,5.7,3,9.2v32.3c0,3.5,0.1,8.1-3,9.3l-0.4,0.2v1.3h16.1
			V53l-0.4-0.2c-3.1-1.2-3-5.9-3-9.3V11.4C589.8,7.9,589.8,3.2,592.9,2"/>
	</g>
	<g>
		<path class="st0" d="M233.3,133.8c2,0.3,3,0.7,3,1.2c0,0.3-0.5,0.7-1.6,1.2v19.7c0,1-0.7,1.6-2.1,1.6c-0.9,0-1.3-0.4-1.3-1.2
			c0-0.2,0-1,0.1-2.6c0.1-4.6,0.2-8.8,0.2-12.6c0-1.2,0-2.9,0.1-5.2c-2.5,3-5.5,5.5-8.7,7.5c0,0-0.1,0-0.1,0c-0.3,0-0.5-0.2-0.5-0.5
			c0-0.1,0-0.1,0.1-0.2c4.4-3.9,7.8-8.4,10.1-13.5c0.9-1.9,1.5-3.7,1.9-5.5c3.2,1,4.8,1.8,4.8,2.3c0,0.6-0.7,0.9-2,1.1
			C236.1,129.6,234.7,131.8,233.3,133.8z M253.4,117.3h8.6c1.5-1.8,2.3-2.6,2.6-2.6c0.3,0,1.3,0.7,3,2.1c0.8,0.6,1.1,1.1,1.1,1.4
			c0,0.3-0.2,0.5-0.7,0.5h-14.7c0,0.8,0,1.6,0,2.6c0,0.6,0,0.9,0,1c0,0.9-0.7,1.3-2,1.3c-0.9,0-1.4-0.4-1.4-1.1c0-0.1,0-0.3,0-0.6
			c0.1-1,0.1-2.1,0.2-3.3H240c0,0.6,0,1.5,0.1,2.5c0,0.6,0,0.9,0,1.1c0,0.9-0.7,1.3-2,1.3c-0.9,0-1.4-0.4-1.4-1.1c0-0.1,0-0.3,0-0.6
			c0.1-1,0.1-2.1,0.2-3.2h-10.1c-0.9,0-2.1,0.1-3.4,0.3l-0.5-1.9c1.3,0.2,2.6,0.3,3.9,0.3h10.1v-0.6c0-2.6-0.1-4.5-0.3-5.9
			c2.3,0.2,3.7,0.4,4.4,0.6c0.5,0.1,0.7,0.4,0.7,0.7c0,0.4-0.6,0.8-1.7,1.2v4h10.4c0-3-0.1-5.1-0.3-6.4c2.3,0.3,3.7,0.5,4.3,0.7
			c0.5,0.1,0.8,0.4,0.8,0.7c0,0.4-0.6,0.7-1.7,1.1V117.3z M249.3,139.6c3.1-1.9,6.2-4.4,9.3-7.5c1.6-1.8,2.7-3.2,3.3-4.2
			c2.8,1.6,4.2,2.7,4.2,3.2c0,0.5-0.5,0.7-1.5,0.7c-0.3,0-0.5,0-0.9-0.1c-4,3.8-8.8,6.8-14.4,9.1v9.1c0,1.4,0.4,2.2,1.3,2.6
			c0.8,0.3,2.5,0.5,5.1,0.5c2.8,0,4.6-0.1,5.7-0.3c0.9-0.2,1.6-0.4,2.2-0.9c0.9-0.8,1.8-3,2.6-6.5c0-0.1,0.1-0.2,0.3-0.2
			c0.2,0,0.3,0.1,0.3,0.3c0,2.3,0,3.9,0.1,4.8c0.1,0.8,0.3,1.2,0.8,1.4c0.7,0.3,1.1,0.7,1.1,1.4c0,1.1-0.9,1.8-2.8,2.3
			c-1.9,0.5-5.5,0.7-10.9,0.7c-3.9,0-6.5-0.5-7.6-1.5c-0.9-0.8-1.4-2.3-1.4-4.5l0.2-11.2c0-7.8-0.1-12.8-0.2-14.9
			c2.2,0.2,3.7,0.5,4.4,0.7c0.5,0.2,0.8,0.4,0.8,0.7c0,0.5-0.6,0.9-1.8,1.4V139.6z"/>
		<path class="st0" d="M332,130.7h9.3c1.4-1.7,2.2-2.6,2.5-2.6c0.2,0,1.1,0.7,2.7,2c0.8,0.6,1.1,1.1,1.1,1.4c0,0.3-0.2,0.5-0.7,0.5
			H332v14.2h9.5c1.4-1.7,2.2-2.6,2.5-2.6c0.3,0,1.2,0.7,2.7,2c0.8,0.6,1.1,1.1,1.1,1.4s-0.2,0.5-0.7,0.5H332v3.9c0,1-0.7,1.5-2,1.5
			c-0.9,0-1.4-0.4-1.4-1.2l0.3-18.5c0-8.8-0.1-14.3-0.3-16.4c1.1,0.4,2.4,1,3.7,1.8c2.9-1.3,5.7-3,8.4-5.3c1.1-0.9,2-1.8,2.6-2.6
			c2.4,1.8,3.6,2.9,3.6,3.3c0,0.4-0.3,0.6-1.1,0.6c-0.4,0-0.8-0.1-1.4-0.1c-4,2.4-8.2,4.2-12.6,5.3V130.7z M353.5,116.6h11.6
			c1.1-1.2,1.8-1.8,2-1.8c0.2,0,0.9,0.5,2.2,1.6c0.6,0.4,0.8,0.8,0.8,1.2s-0.5,0.8-1.4,1.4v9.1l0.2,17.7c0,1.7-0.6,2.8-1.9,3.5
			c-0.7,0.4-1.6,0.6-2.7,0.6c-0.4,0-0.7-0.3-0.8-0.8c-0.1-0.7-0.6-1.2-1.3-1.6c-0.7-0.4-2-0.7-3.9-1.1c-0.1,0-0.2-0.1-0.2-0.4
			c0-0.3,0.1-0.4,0.3-0.4c2.8,0.2,4.9,0.4,6.2,0.4c0.6,0,0.9-0.3,0.9-0.9v-27.3H353v18.5l0.1,19.5c0,1.1-0.7,1.6-2.1,1.6
			c-0.9,0-1.3-0.5-1.3-1.4l0.2-22.7c0-10.7-0.1-17-0.3-18.8C350.9,115.1,352.2,115.8,353.5,116.6z"/>
	</g>
</g>
</svg>
